# xmcd
#
# Track frame offsets: 
#        183
#        11010
#        23970
#        35670
#        45570
#        56483
#        67003
#        79215
#        89433
#        102780
#        117253
#        127375
#        138415
#        150238
#        161648
#        172743
#        185038
#        195443
#
# Disc length: 2775 seconds
#
# Revision: 7
# Processed by: cddbd v1.5.2PL0 Copyright (c) Steve Scherf et al.
# Submitted via: ExactAudioCopyFreeDBPlugin 1.0
#
DISCID=f10ad512
DTITLE=Various Artist - Country Legends
DYEAR=1985
DGENRE=Country
TTITLE0=Please Help Me I'm Falling [Hank Locklin]
TTITLE1=Gentle On My Mind [Patti Page]
TTITLE2=Am I That Easy To Forget [Carl Belew]
TTITLE3=Your Cheatin' Heart [Jerry Lee Lewis]
TTITLE4=Truck Driving Son Of A Gun [Dave Dudley]
TTITLE5=Blackland Farmer [Sleepy LaBeef]
TTITLE6=My Heart Cries For You [Charlie Rich]
TTITLE7=A Woman's World [Teresa Brewer]
TTITLE8=Turn Around [Carl Perkins]
TTITLE9=Why Me Lord [David Allan Coe]
TTITLE10=Walk On By [Leroy van Dyke]
TTITLE11=Blue Eyes Crying In The Rain [Charlie Walker]
TTITLE12=Trying To Get To you [Roy Orbison]
TTITLE13=Night Life [Willie Nelson]
TTITLE14=Night Time Is Cry Time [Jimmy C. Newman]
TTITLE15=If The Whole World Stopped Loving [Roy Drusky]
TTITLE16=Help Me Make It Through The Night [Jeannie C. Riley]
TTITLE17=Folsom Prison Blues [Johnny Cash]
EXTD=
EXTT0=
EXTT1=
EXTT2=
EXTT3=
EXTT4=
EXTT5=
EXTT6=
EXTT7=
EXTT8=
EXTT9=
EXTT10=
EXTT11=
EXTT12=
EXTT13=
EXTT14=
EXTT15=
EXTT16=
EXTT17=
PLAYORDER=
